<svg width="62" height="39" viewBox="0 0 62 39" fill="none" xmlns="http://www.w3.org/2000/svg">
<path d="M33.591 3.46948C31.6969 4.77173 29.8809 6.49568 28.8267 8.38199C26.66 12.2591 27.861 15.8225 28.7897 18.1353C30.0542 21.2845 32.6152 22.8744 35.6673 24.0357C40.0191 25.6915 45.4892 25.803 50.4563 24.6963C52.2072 24.3062 54.9257 23.495 55.519 22.7382C56.1613 21.9189 56.2622 20.3343 54.8822 19.6383C53.5363 18.9595 53.4057 19.4778 49.3968 20.2459C46.6068 20.7804 43.5602 20.8732 39.901 19.5104C37.5932 18.6508 36.0316 17.3319 35.4981 15.5291C33.9679 10.3579 37.2739 8.43987 37.9188 8.08927L33.591 3.46948Z" fill="url(#paint0_linear)"/>
<path d="M38.151 9.55785C36.4283 9.36092 31.3743 8.89881 26.0868 8.08941C17.9045 6.83691 8.28495 5.09968 5.21368 4.91428C-0.696851 4.55749 -1.68244 11.1824 3.03593 12.3156C5.70826 12.9574 13.0617 12.2834 14.8491 15.3281C15.3936 16.2555 16.8338 19.7525 18.4653 24.0827C19.1049 25.7804 24.3066 25.5135 23.3394 21.8964C22.7871 19.8309 21.5296 14.2519 21.5296 14.2519C21.5296 14.2519 36.45 15.617 37.6641 15.7076L38.151 9.55785Z" fill="url(#paint1_linear)"/>
<path d="M46.0081 6.15075C47.9028 6.19415 51.1995 6.61401 52.6843 7.47103L60.964 8.87888C61.0425 4.91396 58.5223 2.78042 55.6982 1.55052C53.5546 0.616964 50.5474 -0.14325 46.0343 0.0229339C41.7189 0.18184 37.1817 0.997404 33.5627 3.48549L37.8879 8.11327C39.9287 7.00387 42.4934 6.07025 46.0081 6.15075Z" fill="url(#paint2_linear)"/>
<path d="M52.5522 7.39795C52.5522 7.39795 52.9882 7.63898 53.1776 7.78821C54.0794 8.499 54.378 9.34825 51.6422 9.73877L53.8062 15.5117C58.7296 14.3735 60.902 11.8671 60.9626 8.8068L52.5522 7.39795Z" fill="url(#paint3_linear)"/>
<path d="M51.7241 9.72885C49.2987 10.0751 44.5968 10.2989 38.114 9.55786L37.6271 15.7076C48.1545 16.4934 51.8567 15.9574 53.888 15.4878L51.7241 9.72885Z" fill="url(#paint4_linear)"/>
<path d="M0 31.9429C0 32.0517 0.0992839 32.1354 0.218425 32.1354H2.20411V36.711L3.51293 36.715V32.1354H5.49861C5.61775 32.1354 5.71704 32.0517 5.71704 31.9429V31.2362C5.71704 31.1274 5.61775 31.0437 5.49861 31.0437H0.218425C0.0992839 31.0437 0 31.1274 0 31.2362V31.9429Z" fill="#FC0103"/>
<path d="M4.65686 34.6239C4.65686 35.8291 5.82841 36.7666 7.27796 36.7666C8.73743 36.7666 9.90899 35.8291 9.90899 34.6239C9.90899 33.4102 8.73743 32.4561 7.27796 32.4561C5.82841 32.4561 4.65686 33.4102 4.65686 34.6239ZM6.10641 34.6155C6.10641 34.0463 6.61275 33.5776 7.27796 33.5776C7.95309 33.5776 8.45944 34.0463 8.45944 34.6155C8.45944 35.1846 7.95309 35.645 7.27796 35.645C6.61275 35.645 6.10641 35.1846 6.10641 34.6155Z" fill="#FC0103"/>
<path d="M10.7649 35.4988C10.7649 36.4279 11.589 36.8045 12.423 36.8045C12.9889 36.8045 13.5682 36.737 13.9378 36.4937C14.5405 36.0969 14.0354 35.2909 13.2131 35.6901C12.9692 35.8085 12.5679 35.7482 12.4945 35.7225C12.3289 35.6646 12.041 35.6157 12.0578 35.2142V33.4591H13.2712C14.2019 33.4591 14.19 32.4464 13.2712 32.4464H12.0578V31.0601L10.7649 31.0562V32.4464H10.1295V33.4591H10.7649V35.4988Z" fill="#FC0103"/>
<path d="M14.4281 34.6071C14.4281 35.9212 15.5897 36.7666 16.8407 36.7666C17.4861 36.7666 18.159 36.5322 18.3874 36.2141V36.7721L19.587 36.7681V32.9866C19.587 32.2465 18.412 32.2825 18.412 32.9458C18.1837 32.6277 17.496 32.4561 16.8506 32.4561C15.5997 32.4561 14.4281 33.2847 14.4281 34.6071ZM15.8776 34.6155C15.8776 34.0463 16.384 33.5776 17.0591 33.5776C17.7343 33.5776 18.2406 34.0463 18.2406 34.6155C18.2406 35.1847 17.7343 35.6534 17.0591 35.6534C16.384 35.6534 15.8776 35.1847 15.8776 34.6155Z" fill="#FC0103"/>
<path d="M22.0708 36.7151V31.5444C22.0708 30.8887 20.7145 30.9099 20.7145 31.5444V36.7148L22.0708 36.7151Z" fill="#FC0103"/>
<path d="M23.2449 30.9802C23.1158 30.9802 23.0265 31.0639 23.0265 31.1644V36.52C23.0265 36.6288 23.1158 36.7125 23.2449 36.7125H27.6356L27.6403 35.5575H24.5157V34.4621H26.9655C27.0945 34.4621 27.1839 34.37 27.1839 34.2696V33.533C27.1839 33.4242 27.0945 33.3405 26.9655 33.3405H24.5157V32.1353H27.3385C27.4675 32.1353 27.5668 32.0516 27.5668 31.9428V31.1727C27.5668 31.0639 27.4675 30.9802 27.3385 30.9802H23.2449Z" fill="#FC0103"/>
<path d="M32.0621 36.5451C32.0621 36.6455 32.1713 36.7125 32.2805 36.7125H33.1366C33.2458 36.7125 33.355 36.6455 33.355 36.5451V34.2852C33.355 33.2892 32.6891 32.3892 31.4084 32.3892C30.6538 32.3892 29.9258 32.5803 29.6379 32.8733C29.6379 32.2731 28.5017 32.247 28.5017 32.8205V36.7176L29.7846 36.7217V34.4217C29.7846 33.0031 32.0621 33.2294 32.0621 34.4217V36.5451Z" fill="#FC0103"/>
<path d="M42.5464 32.354C41.8398 32.354 41.2619 32.7155 40.9938 33.0754V32.8039C40.9938 32.2986 39.9172 32.245 39.9172 32.8218V36.7008L41.1824 36.7148V34.7374C41.1824 34.142 41.6455 33.4851 42.1434 33.4153L42.6563 33.3434C43.4735 33.3434 43.3422 32.354 42.5464 32.354Z" fill="#FC0103"/>
<path d="M45.9322 37.5046C45.2769 37.5046 44.6511 37.4729 44.3153 37.312C43.5108 36.9266 43.0355 37.7732 43.5368 38.0229C44.2143 38.3604 44.5522 38.5265 45.823 38.5265C47.4513 38.5265 48.3344 37.7494 48.3344 36.6111V32.8206C48.3344 32.3208 47.2082 32.263 47.2082 32.7573V33.0168C46.9699 32.6987 46.287 32.5193 45.6317 32.5193C44.3807 32.5193 43.2489 33.3395 43.2489 34.6369C43.2489 35.9342 44.3708 36.7377 45.6913 36.7377C46.3267 36.7377 46.843 36.5034 47.0614 36.2188V36.5692C47.0614 37.1133 46.6967 37.5046 45.9322 37.5046ZM44.6985 34.6369C44.6985 34.0677 45.2048 33.6241 45.87 33.6241C46.5451 33.6241 47.0515 34.0677 47.0515 34.6369C47.0515 35.2144 46.5451 35.6496 45.87 35.6496C45.2048 35.6496 44.6985 35.2144 44.6985 34.6369Z" fill="#FC0103"/>
<path d="M50.0521 31.9472C50.475 31.9472 50.826 31.6358 50.826 31.27C50.826 30.8963 50.475 30.585 50.0521 30.585C49.6202 30.585 49.2693 30.8963 49.2693 31.27C49.2693 31.6358 49.6202 31.9472 50.0521 31.9472ZM50.502 36.7126C50.61 36.7126 50.691 36.6347 50.691 36.5413V33.0297C50.691 32.2886 49.3953 32.2888 49.3953 33.0297V36.5413C49.3953 36.6347 49.4852 36.7126 49.5932 36.7126H50.502Z" fill="#FC0103"/>
<path d="M54.0595 32.384C52.5409 32.384 51.4475 33.3892 51.4475 34.6369C51.4475 35.8846 52.5206 36.8464 54.0797 36.8464C55.163 36.8464 55.8042 36.5704 56.2092 36.1199C56.4562 35.7508 55.8755 35.2999 55.3576 35.5579C54.8989 35.8259 54.5859 35.7893 54.1101 35.7893C53.533 35.7893 53.0268 35.4514 52.956 34.9228H56.1906C56.3931 34.9228 56.4437 34.8275 56.4437 34.7235V34.4896C56.4437 33.4065 55.6186 32.384 54.0595 32.384ZM55.1529 34.143H52.9863C53.1281 33.6751 53.5735 33.3892 54.0696 33.3892C54.5454 33.3892 55.0212 33.6318 55.1529 34.143Z" fill="#FC0103"/>
<path d="M59.0822 32.3513C57.7527 32.3513 56.9281 32.96 56.9281 33.734C56.9281 34.4209 57.4744 34.847 58.2886 34.9862L59.1132 35.134C59.5873 35.2123 59.8346 35.2992 59.8346 35.5079C59.8346 35.6905 59.6079 35.8644 59.1441 35.8644C58.6494 35.8644 58.1362 35.7851 57.8167 35.5503C57.1084 35.233 56.4792 35.9031 57.1858 36.3601C57.5981 36.6036 58.2474 36.8297 59.0925 36.8297C60.4633 36.8297 61.36 36.2123 61.36 35.3949C61.36 34.6035 60.6591 34.2557 59.8037 34.1166L59.0101 33.9861C58.5875 33.9166 58.4329 33.8035 58.4329 33.6383C58.4329 33.4644 58.6906 33.3253 59.0822 33.3253C59.5048 33.3253 59.8615 33.3626 60.1707 33.5365C60.7912 33.8456 61.4274 33.1863 60.8501 32.7705C60.5409 32.5358 60.082 32.3513 59.0822 32.3513Z" fill="#FC0103"/>
<path d="M36.7415 32.384C35.2229 32.384 34.1295 33.3892 34.1295 34.6369C34.1295 35.8846 35.2027 36.8464 36.7617 36.8464C37.845 36.8464 38.4862 36.5704 38.8912 36.1199C39.1382 35.7508 38.5576 35.2999 38.0396 35.5579C37.5809 35.8259 37.2679 35.7893 36.7921 35.7893C36.215 35.7893 35.7088 35.4514 35.638 34.9228H38.8726C39.0751 34.9228 39.1257 34.8275 39.1257 34.7235V34.4896C39.1257 33.4065 38.3006 32.384 36.7415 32.384ZM37.8349 34.143H35.6683C35.8101 33.6751 36.2555 33.3892 36.7516 33.3892C37.2274 33.3892 37.7033 33.6318 37.8349 34.143Z" fill="#FC0103"/>
<defs>
<linearGradient id="paint0_linear" x1="34.4013" y1="7.7139" x2="47.7572" y2="24.5264" gradientUnits="userSpaceOnUse">
<stop stop-color="#0186F5"/>
<stop offset="0.13185" stop-color="#0186F5"/>
<stop offset="0.314591" stop-color="#35C2B0"/>
<stop offset="0.666984" stop-color="#AAD825"/>
<stop offset="1" stop-color="#FED700"/>
</linearGradient>
<linearGradient id="paint1_linear" x1="21.3994" y1="23.5658" x2="21.4963" y2="14.2515" gradientUnits="userSpaceOnUse">
<stop stop-color="#FF7F00"/>
<stop offset="1" stop-color="#FE0201"/>
</linearGradient>
<linearGradient id="paint2_linear" x1="34.8229" y1="5.38956" x2="52.3054" y2="5.77844" gradientUnits="userSpaceOnUse">
<stop stop-color="#0186F5"/>
<stop offset="0.198316" stop-color="#0186F5"/>
<stop offset="1" stop-color="#3156FD"/>
</linearGradient>
<linearGradient id="paint3_linear" x1="53.2647" y1="11.067" x2="54.5306" y2="8.1721" gradientUnits="userSpaceOnUse">
<stop stop-color="#8434D5"/>
<stop offset="0.854207" stop-color="#3156FD"/>
<stop offset="1" stop-color="#3156FD"/>
</linearGradient>
<linearGradient id="paint4_linear" x1="51.4702" y1="12.5965" x2="38.056" y2="13.3329" gradientUnits="userSpaceOnUse">
<stop stop-color="#8434D5"/>
<stop offset="1" stop-color="#FE0201"/>
</linearGradient>
</defs>
</svg>
